<svg xmlns="http://www.w3.org/2000/svg"  viewBox="0 0 64 64" width="64px" height="64px"><path d="M 32 8 C 18.756603 8 8 18.756603 8 32 C 8 40.846987 12.794107 48.588582 19.929688 52.748047 A 1.0004315 1.0004315 0 1 0 20.9375 51.019531 C 14.39708 47.206996 10 40.125013 10 32 C 10 19.837397 19.837397 10 32 10 C 44.162603 10 54 19.837397 54 32 C 54 44.162603 44.162603 54 32 54 C 29.318987 54 27.573286 53.577478 26.169922 53.169922 C 28.817959 50.342995 30.737658 46.104818 32.351562 41.917969 C 33.41433 42.507652 34.610285 42.910156 36 42.910156 C 39.760143 42.910156 42.626514 41.377169 44.425781 38.972656 C 46.225048 36.568144 47 33.378611 47 30 C 47 26.996188 45.811186 23.541583 43.333984 20.78125 C 40.856783 18.020917 37.049238 16 32 16 C 26.933737 16 23.126229 18.159002 20.658203 20.974609 C 18.190177 23.790217 17 27.214189 17 30 C 17 35.275311 19.229638 39.395148 22.34375 40.59375 A 1.0001 1.0001 0 0 0 23.595703 40.107422 C 24.340609 38.616443 24.945313 36.212891 24.945312 36.212891 A 1.0001 1.0001 0 0 0 24.667969 35.234375 C 22.403151 33.079899 22.367065 29.965934 23.818359 27.216797 C 25.269653 24.467659 28.205135 22.277344 31.765625 22.277344 C 34.535855 22.277344 36.612153 23.246721 38.048828 24.806641 C 39.485504 26.366561 40.287109 28.558972 40.287109 31.074219 C 40.287109 33.058271 39.223081 35.320672 37.890625 36.484375 C 37.224397 37.066227 36.533102 37.365247 35.898438 37.373047 C 35.425562 37.378847 34.928 37.156364 34.402344 36.751953 C 34.704323 35.897446 35.058069 34.811434 35.332031 33.666016 C 35.612403 32.493803 35.815809 31.28101 35.755859 30.160156 C 35.695909 29.039303 35.315656 27.83754 34.21875 27.279297 A 1.0001 1.0001 0 0 0 34.085938 27.222656 C 33.537168 27.036837 32.931435 27.028477 32.416016 27.242188 C 31.900597 27.455898 31.521445 27.850642 31.259766 28.279297 C 30.736407 29.136607 30.562286 30.182908 30.53125 31.310547 C 30.47479 33.362085 30.976108 35.58787 32.119141 37.152344 C 32.061631 37.299248 31.947964 37.603354 31.916016 37.691406 C 31.80409 38.000469 31.627379 38.346365 31.509766 38.664062 C 30.518919 37.423195 29.862281 35.790205 29.632812 34.203125 A 1.0001 1.0001 0 0 0 27.6875 34.054688 C 26.790092 37.00188 23.169922 49.074219 23.169922 49.074219 A 1.0001056 1.0001056 0 1 0 25.085938 49.648438 C 25.085938 49.648438 27.271697 42.377715 28.660156 37.769531 C 29.043756 38.607948 29.491061 39.426417 30.095703 40.138672 C 30.259692 40.331847 30.516928 40.436432 30.699219 40.615234 C 28.787654 45.509629 26.435909 50.743644 23.732422 52.923828 A 1.0001 1.0001 0 0 0 24.064453 54.65625 C 25.411874 55.074115 28.04231 56 32 56 C 45.243397 56 56 45.243397 56 32 C 56 18.756603 45.243397 8 32 8 z M 32 18 C 36.524762 18 39.716405 19.744521 41.845703 22.117188 C 43.975002 24.489854 45 27.535812 45 30 C 45 33.068389 44.274952 35.834699 42.824219 37.773438 C 41.373486 39.712175 39.239857 40.910156 36 40.910156 C 34.846833 40.910156 33.931548 40.551699 33.115234 40.046875 C 33.283316 39.591211 33.522343 39.09542 33.681641 38.65625 C 34.407259 39.090723 35.162074 39.382409 35.923828 39.373047 C 37.155538 39.357907 38.280259 38.799633 39.207031 37.990234 C 41.060576 36.371437 42.287109 33.718167 42.287109 31.074219 C 42.287109 28.131465 41.338106 25.425752 39.519531 23.451172 C 37.700957 21.476592 35.016395 20.277344 31.765625 20.277344 C 27.390115 20.277344 23.815534 22.936591 22.048828 26.283203 C 20.390617 29.424296 20.420137 33.300711 22.873047 36.105469 C 22.791157 36.396512 22.494993 37.219561 22.1875 38.105469 C 20.574212 36.844239 19 33.962336 19 30 C 19 27.806811 20.023636 24.732611 22.162109 22.292969 C 24.300583 19.853326 27.492263 18 32 18 z M 33.181641 29.089844 C 33.200451 29.082044 33.281251 29.102289 33.328125 29.105469 C 33.537 29.227568 33.719421 29.51133 33.759766 30.265625 C 33.801656 31.048896 33.642472 32.131884 33.386719 33.201172 C 33.277952 33.655918 33.137896 34.022586 33.007812 34.457031 C 32.712066 33.481836 32.50344 32.377603 32.53125 31.367188 C 32.55646 30.451076 32.758093 29.662191 32.966797 29.320312 C 33.071149 29.149375 33.147802 29.103875 33.181641 29.089844 z"/></svg>