<svg xmlns="http://www.w3.org/2000/svg" width="144.083" height="144" id="pinterest"><path d="M72.04 11.166c-33.543 0-60.833 27.29-60.833 60.834s27.29 60.834 60.833 60.834c33.544 0 60.835-27.29 60.835-60.834S105.584 11.166 72.04 11.166zm0 115.668c-30.235 0-54.833-24.599-54.833-54.834S41.805 17.166 72.04 17.166c30.237 0 54.835 24.599 54.835 54.834s-24.598 54.834-54.835 54.834z"></path><path d="M83.604 37.343c-16.462-3.048-24.794 1.626-29.597 5.285-4.802 3.658-10.213 10.289-9.755 21.874.457 11.586 9.907 13.262 9.907 13.262s1.067-2.059 1.296-3.43c.229-1.373.152-2.744-1.524-5.107-3.353-5.335-.686-14.938 2.896-18.444 3.397-3.326 8.536-8.079 19.664-7.317 13.197.904 13.033 15.701 13.033 15.701-.152 9.222-1.524 11.889-5.031 17.759-4.344 5.791-12.042 4.115-13.489 2.057-2.363-3.658.457-10.365 2.133-17.225 1.678-6.859-.381-7.698-1.524-8.765-1.144-1.067-7.012-2.591-10.137 4.116-3.125 6.706.076 12.804.076 12.804s-.99 4.345-3.507 13.642c-2.515 9.299-3.353 19.818-2.058 24.086 3.583-2.135 6.098-6.783 7.927-11.51 1.829-4.725 3.049-12.271 3.43-12.576.609.764 5.03 3.432 5.03 3.432 3.43 1.676 9.375 1.676 14.938-1.068 5.564-2.744 11.586-12.347 12.271-20.578 1.753-15.701-5.106-25.05-15.979-27.998z"></path></svg>