<svg width="140" height="40" viewBox="0 0 140 40" fill="none" xmlns="http://www.w3.org/2000/svg">
<path fill-rule="evenodd" clip-rule="evenodd" d="M0 5.70825C0 2.55563 2.56237 0 5.7083 0H34.282C37.435 0 39.9907 2.56229 39.9907 5.70825V34.2821C39.9907 37.4347 37.4283 39.9903 34.2824 39.9903H5.7083C2.5557 39.9907 0 37.428 0 34.2821V5.70825ZM12.398 26.6603C16.6026 26.6603 18.5673 24.3634 18.5673 21.1045V13.3303H15.1485V21.0065C15.1485 22.5572 14.2053 23.6765 12.3976 23.6765C10.5703 23.6765 9.62715 22.5576 9.62715 21.0065V13.3303H6.18869V21.1242C6.18906 24.3438 8.19341 26.6603 12.398 26.6603ZM28.2772 26.6603C31.3339 26.6603 32.9854 24.8442 33.8019 23.2023L30.9922 21.8499C30.5745 22.8737 29.4925 23.7238 28.2772 23.7238C26.2077 23.7238 24.7462 22.1009 24.7462 19.9953C24.7462 17.8701 26.2081 16.2668 28.2772 16.2668C29.4922 16.2668 30.5745 17.1169 30.9922 18.1407L33.8019 16.769C32.9854 15.0884 31.3339 13.3303 28.2772 13.3303C24.3852 13.3303 21.4237 16.0159 21.4237 19.9953C21.4237 23.9555 24.3852 26.6603 28.2772 26.6603ZM76.4896 7.76953C75.1399 7.76953 74.1861 8.36339 73.5023 9.1552V4.15237H70.9649V17.8292H73.4303V16.6055C74.1141 17.4333 75.0859 18.0631 76.4896 18.0631C79.2789 18.0631 81.3844 15.8676 81.3844 12.9343C81.3844 10.001 79.2789 7.76953 76.4896 7.76953ZM76.0937 15.7417C74.4741 15.7417 73.3943 14.464 73.3943 12.9163C73.3943 11.3867 74.4741 10.109 76.0937 10.109C77.7133 10.109 78.7931 11.3687 78.7931 12.9163C78.7931 14.464 77.7133 15.7417 76.0937 15.7417ZM61.0371 12.9703C61.0371 16.4795 58.6437 18.0631 55.8543 18.0631C53.047 18.0631 50.6535 16.4795 50.6535 12.9703V4.53028H53.3349V12.7904C53.3349 14.6079 54.3606 15.4717 55.8543 15.4717C57.33 15.4717 58.3377 14.5719 58.3377 12.7904V4.53028H61.0371V12.9703ZM65.9279 17.8292H63.3905V8.02147H65.8199V9.33516C66.4318 8.25541 67.3675 7.75153 68.5193 7.75153C68.8792 7.75153 69.3111 7.82351 69.707 7.96748L69.4911 10.3969C69.0951 10.2709 68.6992 10.199 68.3213 10.199C66.9896 10.199 65.9279 11.0268 65.9279 13.1683V17.8292ZM90.6295 9.19119V8.02147H93.041V17.8292H90.6295V16.6954C89.9097 17.4693 88.8839 18.0631 87.4982 18.0631C84.6549 18.0631 82.6394 15.7957 82.6394 12.8803C82.6394 9.92902 84.7089 7.76953 87.4982 7.76953C88.8839 7.76953 89.8917 8.38138 90.6295 9.19119ZM85.1768 12.9163C85.1768 14.482 86.2925 15.7597 87.9121 15.7597C89.5318 15.7597 90.6655 14.464 90.6655 12.9163C90.6655 11.3867 89.5318 10.091 87.9121 10.091C86.2745 10.091 85.1768 11.3867 85.1768 12.9163ZM95.3225 17.8292H97.8599V12.5744C97.8599 11.0987 98.7777 10.091 100.109 10.091C101.333 10.091 102.179 10.9368 102.179 12.5204V17.8292H104.716V11.8366C104.716 9.06522 102.863 7.75153 100.883 7.75153C99.4255 7.75153 98.3098 8.47136 97.8059 9.38915V8.02147H95.3225V17.8292ZM62.7467 33.1976C61.577 34.7992 59.4355 36.0229 56.8801 36.0229C53.0829 36.0229 50.0417 33.2876 50.0417 29.2205C50.0417 25.1175 53.1729 22.2921 56.9161 22.2921C59.3815 22.2921 61.487 23.4259 62.6387 25.0455L60.8571 26.7911C59.9394 25.6574 58.6257 24.8655 57.06 24.8655C54.6846 24.8655 52.813 26.6831 52.813 29.2205C52.813 31.686 54.6486 33.4675 57.042 33.4675C58.6077 33.4675 59.9753 32.6937 60.9111 31.524L62.7467 33.1976ZM68.8615 36.0769C71.9927 36.0769 74.1162 33.7735 74.1162 30.9121C74.1162 28.0868 71.9927 25.7473 68.8615 25.7473C65.7302 25.7473 63.6067 28.0868 63.6067 30.9121C63.6067 33.7735 65.7302 36.0769 68.8615 36.0769ZM68.8615 33.7195C67.3318 33.7195 66.1441 32.4778 66.1441 30.9121C66.1441 29.3645 67.3318 28.1228 68.8615 28.1228C70.3911 28.1228 71.5788 29.3645 71.5788 30.9121C71.5788 32.4778 70.3911 33.7195 68.8615 33.7195ZM84.2532 27.4749C84.9731 26.3772 86.3228 25.7473 87.7624 25.7473C89.9939 25.7473 91.7575 27.205 91.7575 29.9044V35.825H89.2201V30.3723C89.2201 28.8246 88.3923 28.0868 87.2585 28.0868C86.0168 28.0868 85.099 28.9866 85.099 30.4442V35.825H82.5616V30.3903C82.5616 28.9146 81.7698 28.0868 80.5821 28.0868C79.3764 28.0868 78.4406 28.9506 78.4406 30.4622V35.825H75.9032V26.0173H78.3866V27.4209C78.9445 26.3772 80.1142 25.7293 81.3739 25.7473C82.5436 25.7473 83.6954 26.2872 84.2532 27.4749ZM99.5668 25.7653C98.1811 25.7653 97.1734 26.3952 96.4536 27.223V26.0173H93.9341V39.856H96.4715V34.6912C97.1914 35.4651 98.1811 36.0589 99.5488 36.0589C102.374 36.0589 104.39 33.7555 104.39 30.9121C104.39 28.0688 102.374 25.7653 99.5668 25.7653ZM99.1169 33.7375C97.4973 33.7375 96.4176 32.4778 96.4176 30.9301C96.4176 29.3825 97.4973 28.1228 99.1169 28.1228C100.755 28.1228 101.834 29.3825 101.834 30.9301C101.834 32.4778 100.755 33.7375 99.1169 33.7375ZM113.651 27.187V26.0173H116.063V35.825H113.651V34.6912C112.932 35.4651 111.906 36.0589 110.52 36.0589C107.677 36.0589 105.661 33.7915 105.661 30.8761C105.661 27.9248 107.731 25.7653 110.52 25.7653C111.906 25.7653 112.914 26.3772 113.651 27.187ZM108.199 30.9121C108.199 32.4778 109.315 33.7555 110.934 33.7555C112.554 33.7555 113.687 32.4598 113.687 30.9121C113.687 29.3825 112.554 28.0868 110.934 28.0868C109.297 28.0868 108.199 29.3825 108.199 30.9121ZM118.344 35.825H120.882V30.5702C120.882 29.0946 121.8 28.0868 123.131 28.0868C124.355 28.0868 125.201 28.9326 125.201 30.5162V35.825H127.738V29.8324C127.738 27.061 125.885 25.7473 123.905 25.7473C122.448 25.7473 121.332 26.4672 120.828 27.385V26.0173H118.344V35.825ZM133.967 32.4058L136.198 26.0173H138.97L135.029 36.3109C134.093 38.7223 132.869 40 130.872 40C130.134 40 129.468 39.8201 128.982 39.5141L129.414 37.3906C129.792 37.5706 130.224 37.7145 130.674 37.7145C131.484 37.7145 132.077 37.2467 132.581 36.1669L132.779 35.717L128.496 26.0173H131.43L133.967 32.4058Z" fill="#0F0F0F"/>
</svg>
